<svg xmlns="http://www.w3.org/2000/svg" version="1.1" xmlns:xlink="http://www.w3.org/1999/xlink" xmlns:svgjs="http://svgjs.dev/svgjs" width="1440" height="560" preserveAspectRatio="none" viewBox="0 0 1440 560"><g mask="url(&quot;#SvgjsMask1036&quot;)" fill="none"><rect width="1440" height="560" x="0" y="0" fill="url(&quot;#SvgjsLinearGradient1037&quot;)"></rect><path d="M0 0L38.51 0L0 182.81z" fill="rgba(255, 255, 255, .1)"></path><path d="M0 182.81L38.51 0L478.84 0L0 220.6z" fill="rgba(255, 255, 255, .075)"></path><path d="M0 220.6L478.84 0L776.3299999999999 0L0 340.9z" fill="rgba(255, 255, 255, .05)"></path><path d="M0 340.9L776.3299999999999 0L1071.02 0L0 355.63z" fill="rgba(255, 255, 255, .025)"></path><path d="M1440 560L1249.1 560L1440 407.68z" fill="rgba(0, 0, 0, .1)"></path><path d="M1440 407.68L1249.1 560L1242.48 560L1440 246.38z" fill="rgba(0, 0, 0, .075)"></path><path d="M1440 246.38L1242.48 560L704.37 560L1440 114.32999999999998z" fill="rgba(0, 0, 0, .05)"></path><path d="M1440 114.32999999999998L704.37 560L535.55 560L1440 64.96999999999998z" fill="rgba(0, 0, 0, .025)"></path></g><defs><mask id="SvgjsMask1036"><rect width="1440" height="560" fill="#ffffff"></rect></mask><linearGradient x1="15.28%" y1="-39.29%" x2="84.72%" y2="139.29%" gradientUnits="userSpaceOnUse" id="SvgjsLinearGradient1037"><stop stop-color="rgba(209, 121, 163, 1)" offset="0"></stop><stop stop-color="rgba(238, 153, 194, 1)" offset="1"></stop></linearGradient></defs></svg>