<svg xmlns="http://www.w3.org/2000/svg" version="1.1" xmlns:xlink="http://www.w3.org/1999/xlink" xmlns:svgjs="http://svgjs.dev/svgjs" width="1440" height="560" preserveAspectRatio="none" viewBox="0 0 1440 560"><g mask="url(&quot;#SvgjsMask1150&quot;)" fill="none"><rect width="1440" height="560" x="0" y="0" fill="rgba(12, 53, 158, 1)"></rect><path d="M0,312.777C69.518,312.258,144.386,353.163,204.271,317.853C264.221,282.505,283.734,204.434,298.935,136.519C312.164,77.416,291.859,19.209,284.574,-40.916C277.091,-102.672,297.768,-175.746,255.56,-221.444C213.312,-267.184,135.589,-241.742,77.76,-264.827C10.976,-291.487,-35.68,-366.877,-107.587,-366.409C-182.838,-365.919,-263.965,-326.827,-302.768,-262.35C-341.176,-198.529,-303.87,-117.88,-301.969,-43.417C-300.429,16.889,-307.986,75.305,-292.656,133.651C-274.825,201.515,-266.088,284.285,-206.24,320.916C-146.346,357.575,-70.22,313.301,0,312.777" fill="#0a2a7e"></path><path d="M1440 972.173C1523.15 972.607 1604.492 966.9359999999999 1681.728 936.136 1772.228 900.047 1878.964 867.538 1921.815 780.037 1964.7440000000001 692.377 1917.491 589.802 1898.193 494.122 1879.982 403.828 1865.32 312.71299999999997 1812.3600000000001 237.348 1755.742 156.777 1685.417 72.05099999999999 1588.674 53.66199999999998 1493.259 35.525999999999954 1405.55 102.00400000000002 1317.65 143.31400000000002 1242.487 178.63799999999998 1172.0230000000001 218.17000000000002 1113.417 277.014 1051.282 339.402 996.456 408.448 969.96 492.418 940.279 586.483 908.519 694.429 954.104 781.9010000000001 999.519 869.047 1108.384 897.789 1199.888 933.621 1276.93 963.79 1357.263 971.741 1440 972.173" fill="#0e40be"></path></g><defs><mask id="SvgjsMask1150"><rect width="1440" height="560" fill="#ffffff"></rect></mask></defs></svg>